<svg width="164" height="38" viewBox="0 0 164 38" fill="none" xmlns="http://www.w3.org/2000/svg">
<path fill-rule="evenodd" clip-rule="evenodd" d="M25.2117 21.4091L23.4198 36.1179C23.3683 36.5521 23.035 36.8358 22.5594 36.8358H15.2324C14.7569 36.8358 14.5142 36.5965 14.5142 36.2165V36.1179L16.3184 21.1723C16.414 20.5999 16.5047 20.0325 16.5047 19.4626C16.5047 18.6065 16.414 18.0785 16.1272 17.6986C15.7497 17.178 15.0878 16.9881 14.1857 16.9881C12.9086 16.9881 11.2049 17.2249 11.2049 17.2249L8.886 36.1179C8.83942 36.5521 8.5134 36.8358 8.0403 36.8358H0.703526C0.235326 36.8358 0 36.5965 0 36.2165V36.1179L2.60329 14.8886C2.78959 13.1764 4.54473 12.7003 7.56965 12.1255C9.93271 11.6468 13.2395 11.22 16.2228 11.22C19.4413 11.22 21.9981 11.5556 23.6527 12.8409C24.8783 13.7439 25.5868 15.1723 25.5868 17.4075C25.5868 18.7002 25.3441 20.1262 25.2117 21.4091V21.4091Z" fill="white"/>
<path fill-rule="evenodd" clip-rule="evenodd" d="M38.5002 37.455C46.2561 37.455 49.6193 34.645 51.2249 30.3597C52.2618 27.6483 52.8305 23.6467 52.833 20.6467C52.833 17.5012 52.2251 14.9379 50.0434 13.2677C48.3422 11.9848 45.6923 11.2225 41.6673 11.2225C34.7693 11.2225 31.357 13.5045 29.5112 17.0275C28.0502 19.8844 27.3418 24.6484 27.3418 28.0727C27.3418 31.4082 28.1017 34.1269 30.6903 35.7428C32.4013 36.8357 34.909 37.455 38.5002 37.455V37.455ZM40.9588 17.0276C42.1919 17.0276 42.9493 17.3187 43.3709 17.9823C43.7485 18.5029 43.844 19.3614 43.8465 20.5061C43.8465 22.2627 43.567 24.1253 43.3317 25.9387C42.7581 30.0735 42.0938 31.645 39.167 31.645C38.0786 31.645 37.3628 31.4082 36.8872 30.9321C36.4656 30.3597 36.3259 29.5505 36.3259 28.3145C36.3259 26.5949 36.6078 24.8359 36.8455 23.1213C37.4143 18.6978 37.983 17.0276 40.9588 17.0276V17.0276Z" fill="white"/>
<path fill-rule="evenodd" clip-rule="evenodd" d="M71.3723 36.071C71.186 36.5027 70.8992 36.8383 70.431 36.8383H58.3215C57.8435 36.8383 57.6057 36.5027 57.5641 36.071L54.3945 13.2258V12.9889C54.3945 12.3672 54.8211 11.8417 55.5295 11.8417H62.251C62.9079 11.8417 63.3369 11.938 63.3859 12.7521L64.5675 31.4107H65.8446L71.1885 12.7965C71.4213 11.9873 71.8479 11.8442 72.5097 11.8442H79.2704C79.8906 11.8442 80.2166 12.2291 80.2166 12.7052C80.2166 12.8483 80.1725 13.0407 80.1259 13.2282L71.3723 36.071V36.071Z" fill="white"/>
<path fill-rule="evenodd" clip-rule="evenodd" d="M90.2962 8.82945C91.3894 8.82945 91.9532 8.452 92.0954 7.30726L92.7671 1.73165C92.8087 1.59101 92.8087 1.49974 92.8087 1.35909C92.8087 0.547438 92.3356 0.211914 91.338 0.211914H85.7612C84.6704 0.211914 84.1482 0.594294 84.011 1.7341L83.2927 7.30726V7.6872C83.2927 8.54819 83.7708 8.82945 84.7194 8.82945H90.2962V8.82945ZM87.732 36.8728C88.2051 36.8728 88.5385 36.5891 88.6267 36.1549L91.485 12.5917V12.4955C91.485 12.1131 91.1982 11.8787 90.7716 11.8787H83.4864C83.0623 11.8787 82.6799 12.1649 82.6333 12.5917L79.7334 36.1549V36.2536C79.7334 36.6335 80.0227 36.8728 80.4467 36.8728H87.732V36.8728Z" fill="white"/>
<path fill-rule="evenodd" clip-rule="evenodd" d="M105.051 37.455C112.192 37.455 115.503 35.2568 117.31 30.932C118.44 28.0727 119.151 23.5036 119.151 20.3162C119.151 17.1262 118.541 14.9848 117.259 13.5588C115.795 11.8935 113.385 11.225 110.115 11.225C107.23 11.225 105.002 11.9725 105.002 11.9725L106.193 1.9413C106.193 1.89689 106.235 1.85004 106.235 1.80314C106.235 1.22584 105.862 0.98407 105.377 0.98407C105.296 0.98407 105.147 1.03341 105.051 1.03341L98.2879 2.03012C97.4838 2.18308 97.1995 2.65183 97.1064 3.41663L93.7505 31.0233C93.6083 32.0249 93.5078 32.8341 93.5078 33.5027C93.5078 34.8794 93.9858 35.6368 95.9714 36.3053C97.8663 36.932 101.129 37.455 105.051 37.455V37.455ZM107.277 17.0818C108.554 17.0818 109.358 17.1756 109.787 17.933C110.02 18.4116 110.164 19.1739 110.162 20.2718C110.162 22.1295 109.878 24.0242 109.591 25.8819C108.794 31.0727 107.747 31.645 104.914 31.645C103.82 31.645 102.597 31.4551 102.597 31.4551L104.298 17.4618C104.298 17.4618 105.862 17.0818 107.277 17.0818V17.0818Z" fill="white"/>
<path fill-rule="evenodd" clip-rule="evenodd" d="M128.893 28.4033C128.893 28.2158 128.893 27.979 128.944 27.7421C138.026 27.4584 145.302 27.5522 145.302 19.5021C145.302 12.9347 140.86 11.1757 134.195 11.1757C130.121 11.1757 126.015 12.1255 123.74 15.2217C122.176 17.3162 120.382 21.8409 120.382 27.2117C120.382 34.7857 124.684 37.4526 132.023 37.4526C135.381 37.4526 138.737 37.0184 141.951 35.7848C142.326 35.6343 142.61 35.252 142.61 34.6845V34.5439L142.282 31.4995C142.23 30.9296 141.904 30.5965 141.522 30.5965C141.478 30.5965 141.478 30.6484 141.429 30.6484C140.63 30.8309 137.833 31.7388 135.004 31.7388C133.151 31.7388 131.78 31.5488 130.785 31.1689C129.457 30.6484 128.893 29.7405 128.893 28.4033V28.4033ZM129.412 23.5037C129.555 20.3655 130.216 16.8425 133.673 16.8425C135.801 16.8425 137.029 17.8886 137.029 20.0818C137.029 23.1803 133.635 23.322 130.513 23.4524C130.141 23.468 129.771 23.4834 129.412 23.5037V23.5037Z" fill="white"/>
<path fill-rule="evenodd" clip-rule="evenodd" d="M163.373 17.3655C163.329 17.7923 163 18.076 162.525 18.076H156.992L155.855 26.6911C155.813 27.3622 155.671 28.2158 155.671 28.9756C155.671 29.6442 155.764 30.1722 156.235 30.5521C156.612 30.8284 157.178 31.0233 158.034 31.0233C159.456 31.0233 160.353 30.8309 161.012 30.7371H161.208C161.632 30.7371 161.674 31.0233 161.725 31.3144L161.961 35.0274V35.2149C161.961 35.7897 161.772 36.1721 161.108 36.3621C160.544 36.5027 158.36 37.2132 154.962 37.2132C152.545 37.2132 150.66 36.8802 149.283 36.0685C147.581 35.1187 146.638 33.4065 146.638 30.8309C146.638 29.5505 146.829 28.3589 146.971 27.1204L149.569 5.89111C149.668 5.12632 149.952 4.6551 150.753 4.50954L157.568 3.41663C157.656 3.41663 157.749 3.36975 157.852 3.36975C158.321 3.36975 158.652 3.60166 158.652 4.12961V4.31958L157.749 11.8368H163.285C163.709 11.8368 164 12.0761 164 12.4585V12.5572L163.373 17.3655V17.3655Z" fill="white"/>
</svg>
